<svg width="128" height="128" viewBox="0 0 128 128" fill="none" xmlns="http://www.w3.org/2000/svg">
<rect x="1" y="1" width="126" height="126" fill="white"/>
<rect width="121.95" height="128" fill="white"/>
<path d="M56.4903 60.2C54.4903 60.2 52.677 59.8 51.0503 59C49.4236 58.2 48.0103 57.12 46.8103 55.76C45.637 54.3733 44.7303 52.8267 44.0903 51.12C43.4503 49.3867 43.1303 47.6133 43.1303 45.8C43.1303 43.9067 43.4636 42.1067 44.1303 40.4C44.8236 38.6667 45.7703 37.1333 46.9703 35.8C48.197 34.44 49.6236 33.3733 51.2503 32.6C52.877 31.8 54.6503 31.4 56.5703 31.4C58.5703 31.4 60.3836 31.8133 62.0103 32.64C63.637 33.4667 65.037 34.5733 66.2103 35.96C67.3836 37.3467 68.2903 38.8933 68.9303 40.6C69.5703 42.3067 69.8903 44.0533 69.8903 45.84C69.8903 47.7333 69.557 49.5467 68.8903 51.28C68.2236 52.9867 67.277 54.52 66.0503 55.88C64.8503 57.2133 63.437 58.2667 61.8103 59.04C60.1836 59.8133 58.4103 60.2 56.4903 60.2ZM46.7703 45.8C46.7703 47.24 46.997 48.64 47.4503 50C47.9303 51.3333 48.597 52.52 49.4503 53.56C50.3036 54.6 51.3303 55.4267 52.5303 56.04C53.7303 56.6533 55.0636 56.96 56.5303 56.96C58.0503 56.96 59.4103 56.64 60.6103 56C61.8103 55.36 62.8236 54.5067 63.6503 53.44C64.5036 52.3733 65.1436 51.1733 65.5703 49.84C66.0236 48.5067 66.2503 47.16 66.2503 45.8C66.2503 44.36 66.0103 42.9733 65.5303 41.64C65.077 40.3067 64.4103 39.12 63.5303 38.08C62.677 37.0133 61.6503 36.1867 60.4503 35.6C59.277 34.9867 57.9703 34.68 56.5303 34.68C55.0103 34.68 53.6503 35 52.4503 35.64C51.2503 36.2533 50.2236 37.0933 49.3703 38.16C48.5436 39.2267 47.9036 40.4267 47.4503 41.76C46.997 43.0667 46.7703 44.4133 46.7703 45.8ZM74.8922 60V31.6H87.0522C88.3055 31.6 89.4522 31.8667 90.4922 32.4C91.5322 32.9067 92.4389 33.6 93.2122 34.48C93.9855 35.3333 94.5855 36.3067 95.0122 37.4C95.4389 38.4667 95.6522 39.56 95.6522 40.68C95.6522 41.9867 95.3989 43.2267 94.8922 44.4C94.4122 45.5733 93.7189 46.5733 92.8122 47.4C91.9322 48.2267 90.8922 48.8 89.6922 49.12L96.5722 60H92.4922L86.0122 49.8H78.4922V60H74.8922ZM78.4922 46.6H87.0922C88.0789 46.6 88.9322 46.3333 89.6522 45.8C90.3989 45.24 90.9722 44.5067 91.3722 43.6C91.7989 42.6933 92.0122 41.72 92.0122 40.68C92.0122 39.6133 91.7722 38.64 91.2922 37.76C90.8122 36.8533 90.1855 36.1333 89.4122 35.6C88.6389 35.0667 87.7855 34.8 86.8522 34.8H78.4922V46.6ZM120.461 56.8V60H101.181V31.6H120.101V34.8H104.781V44H118.101V47H104.781V56.8H120.461ZM11.9 107V78.6H30.66V81.8H15.5V91.28H28.26V94.28H15.5V107H11.9ZM35.2203 107V78.6H38.8203V103.8H54.6603V107H35.2203ZM69.2403 107.2C67.2403 107.2 65.427 106.8 63.8003 106C62.1736 105.2 60.7603 104.12 59.5603 102.76C58.387 101.373 57.4803 99.8267 56.8403 98.12C56.2003 96.3867 55.8803 94.6133 55.8803 92.8C55.8803 90.9067 56.2136 89.1067 56.8803 87.4C57.5736 85.6667 58.5203 84.1333 59.7203 82.8C60.947 81.44 62.3736 80.3733 64.0003 79.6C65.627 78.8 67.4003 78.4 69.3203 78.4C71.3203 78.4 73.1336 78.8133 74.7603 79.64C76.387 80.4667 77.787 81.5733 78.9603 82.96C80.1336 84.3467 81.0403 85.8933 81.6803 87.6C82.3203 89.3067 82.6403 91.0533 82.6403 92.84C82.6403 94.7333 82.307 96.5467 81.6403 98.28C80.9736 99.9867 80.027 101.52 78.8003 102.88C77.6003 104.213 76.187 105.267 74.5603 106.04C72.9336 106.813 71.1603 107.2 69.2403 107.2ZM59.5203 92.8C59.5203 94.24 59.747 95.64 60.2003 97C60.6803 98.3333 61.347 99.52 62.2003 100.56C63.0536 101.6 64.0803 102.427 65.2803 103.04C66.4803 103.653 67.8136 103.96 69.2803 103.96C70.8003 103.96 72.1603 103.64 73.3603 103C74.5603 102.36 75.5736 101.507 76.4003 100.44C77.2536 99.3733 77.8936 98.1733 78.3203 96.84C78.7736 95.5067 79.0003 94.16 79.0003 92.8C79.0003 91.36 78.7603 89.9733 78.2803 88.64C77.827 87.3067 77.1603 86.12 76.2803 85.08C75.427 84.0133 74.4003 83.1867 73.2003 82.6C72.027 81.9867 70.7203 81.68 69.2803 81.68C67.7603 81.68 66.4003 82 65.2003 82.64C64.0003 83.2533 62.9736 84.0933 62.1203 85.16C61.2936 86.2267 60.6536 87.4267 60.2003 88.76C59.747 90.0667 59.5203 91.4133 59.5203 92.8ZM96.6622 81.584H99.7222L103.106 90.476L106.526 81.584H109.586L105.158 92.708L109.55 103.256L118.19 81.44H121.718L111.026 107H108.218L103.142 94.94L98.0302 107H95.2222L84.5662 81.44H88.0582L96.7342 103.256L101.09 92.708L96.6622 81.584Z" fill="#3A3A3A"/>
<rect x="1" y="1" width="126" height="126" stroke="#3A3A3A" stroke-width="2"/>
</svg>
